HIERARCHY
ROOT Bip001_Pelvis
{
  OFFSET 7.937 94.8971 -8.5489
  CHANNELS 6 Xposition Yposition Zposition Zrotation Xrotation Yrotation
  JOINT Bip001_Spine
  {
    OFFSET 1.44608e-005 10.4157 -0.0118244
    CHANNELS 3 Zrotation Xrotation Yrotation
    JOINT Bip001_L_Thigh
    {
      OFFSET 11.2582 -10.4157 0.0118432
      CHANNELS 3 Zrotation Xrotation Yrotation
      JOINT Bip001_L_Calf
      {
        OFFSET -0.720717 -44.8687 0.366937
        CHANNELS 3 Zrotation Xrotation Yrotation
        JOINT Bip001_L_Foot
        {
          OFFSET -0.664439 -41.3745 -3.62995
          CHANNELS 3 Zrotation Xrotation Yrotation
          JOINT Bip001_L_Toe0
          {
            OFFSET 0.0541047 -10.4146 13.4033
            CHANNELS 3 Zrotation Xrotation Yrotation
            End Site
            {
              OFFSET -1.04503e-005 0 7.70137
            }
          }
        }
      }
    }
    JOINT Bip001_R_Thigh
    {
      OFFSET -11.2582 -10.4156 0.0118122
      CHANNELS 3 Zrotation Xrotation Yrotation
      JOINT Bip001_R_Calf
      {
        OFFSET 0.72059 -44.8687 0.36676
        CHANNELS 3 Zrotation Xrotation Yrotation
        JOINT Bip001_R_Foot
        {
          OFFSET 0.664321 -41.3745 -3.62979
          CHANNELS 3 Zrotation Xrotation Yrotation
          JOINT Bip001_R_Toe0
          {
            OFFSET -0.05417 -10.4146 13.4033
            CHANNELS 3 Zrotation Xrotation Yrotation
            End Site
            {
              OFFSET -1.04873e-005 0 7.70137
            }
          }
        }
      }
    }
    JOINT Bip001_Spine1
    {
      OFFSET 1.90638e-005 14.8539 1.10727
      CHANNELS 3 Zrotation Xrotation Yrotation
      JOINT Bip001_Spine2
      {
        OFFSET 2.28934e-005 14.7848 -1.7233
        CHANNELS 3 Zrotation Xrotation Yrotation
        JOINT Bip001_Neck
        {
          OFFSET 2.24514e-005 15.6905 -0.498826
          CHANNELS 3 Zrotation Xrotation Yrotation
          JOINT Bip001_L_Clavicle
          {
            OFFSET 6.17691 -0.000591152 0.00852867
            CHANNELS 3 Zrotation Xrotation Yrotation
            JOINT Bip001_L_UpperArm
            {
              OFFSET 11.773 -0.0611878 0.00197697
              CHANNELS 3 Zrotation Xrotation Yrotation
              JOINT Bip001_L_Forearm
              {
                OFFSET 26.4515 0.0817568 -2.19579
                CHANNELS 3 Zrotation Xrotation Yrotation
                JOINT Bip001_L_Hand
                {
                  OFFSET 32.8677 0.156744 1.67112
                  CHANNELS 3 Zrotation Xrotation Yrotation
                  JOINT Bip001_L_Finger0
                  {
                    OFFSET 6.16268 -2.25226 6.01674
                    CHANNELS 3 Zrotation Xrotation Yrotation
                    End Site
                    {
                      OFFSET 4.30499 -1.46662 0.618148
                    }
                  }
                  JOINT Bip001_L_Finger1
                  {
                    OFFSET 11.2957 -0.718374 -0.201963
                    CHANNELS 3 Zrotation Xrotation Yrotation
                    End Site
                    {
                      OFFSET 6.31952 -0.405163 -0.0802303
                    }
                  }
                }
              }
            }
          }
          JOINT Bip001_R_Clavicle
          {
            OFFSET -6.17691 -0.000574027 0.00851165
            CHANNELS 3 Zrotation Xrotation Yrotation
            JOINT Bip001_R_UpperArm
            {
              OFFSET -11.773 -0.0611516 0.00194365
              CHANNELS 3 Zrotation Xrotation Yrotation
              JOINT Bip001_R_Forearm
              {
                OFFSET -26.4514 0.0822334 -2.19736
                CHANNELS 3 Zrotation Xrotation Yrotation
                JOINT Bip001_R_Hand
                {
                  OFFSET -32.8677 0.156817 1.67144
                  CHANNELS 3 Zrotation Xrotation Yrotation
                  JOINT Bip001_R_Finger0
                  {
                    OFFSET -6.1627 -2.25224 6.0167
                    CHANNELS 3 Zrotation Xrotation Yrotation
                    End Site
                    {
                      OFFSET -4.30499 -1.46662 0.618134
                    }
                  }
                  JOINT Bip001_R_Finger1
                  {
                    OFFSET -11.2958 -0.718344 -0.201994
                    CHANNELS 3 Zrotation Xrotation Yrotation
                    End Site
                    {
                      OFFSET -6.31952 -0.405146 -0.0802475
                    }
                  }
                }
              }
            }
          }
          JOINT Bip001_Head
          {
            OFFSET 1.11782e-005 11.4912 2.09908
            CHANNELS 3 Zrotation Xrotation Yrotation
            End Site
            {
              OFFSET 2.95144e-005 21.2823 -2.83069e-005
            }
          }
        }
      }
    }
  }
}
MOTION
Frames:	13
Frame Time:	0.04
8.40551 95.5159 -7.31218 -0.0585462 1.22196e-005 -0.00466321 -0.587867 0.407951 0.0185253 5.28428 -7.48118 7.04036 -0.655719 14.8296 -1.08058 -3.06247 -6.92438 2.34002 0.881175 -9.96092 0.83853 -7.69128 -5.85854 0.198532 0.253509 14.2669 2.51136 1.43454 -7.93046 -9.92502 -0.672412 -11.8465 0.943456 -1.2978 0.815815 0.0323545 -1.28707 0.815817 0.0324851 0.000139503 -6.02501e-005 -1.7423e-005 0.839178 0.158336 1.98062 1.35023 -0.734085 -2.5821 -0.275992 9.69417 -3.40781 -9.24923 -0.391627 -1.88795 2.5842e-015 -1.59028e-015 1.59028e-015 1.68967e-015 -1.59028e-015 1.59028e-015 -0.424554 0.0461233 -2.92722 -5.35285 -0.883166 6.59567 1.01154 3.589 5.50308 9.33296 -1.47878 1.20878 -2.20695e-032 7.95139e-016 1.59028e-015 9.93923e-017 0 1.59028e-015 -6.6008e-005 -2.16703e-005 7.80119e-006 
8.39938 95.5229 -7.31283 -0.0954202 0.0276486 -0.0703596 -0.59756 0.228223 -0.0514981 5.32817 -7.31442 7.03049 -0.650956 14.8299 -1.00257 -3.07189 -6.92413 2.39047 0.881108 -9.96092 0.838148 -7.6373 -5.69159 0.332428 0.266073 14.1698 2.47697 1.44818 -7.87152 -9.90069 -0.669325 -11.8465 0.958491 -1.313 0.466444 -0.109704 -1.313 0.466444 -0.109704 -0.186547 0.994651 0.297081 0.706773 -0.920593 2.75123 1.59933 0.785357 -2.99114 0.159234 9.63101 -3.97086 -9.35329 -0.406211 -1.78477 -2.88238e-015 -3.18055e-015 7.95139e-016 -2.18663e-015 -3.18056e-015 7.95139e-016 -0.104046 -0.924742 -2.96975 -5.32623 -0.543276 6.86073 1.29251 2.90145 5.50444 9.36295 -1.4493 0.964289 -2.98177e-016 0 -0 -9.93923e-017 0 1.59028e-015 0.451761 -0.0954487 0.13505 
8.39061 95.5273 -7.31977 -0.11783 0.0616608 -0.100718 -0.602603 0.228464 -0.0400412 5.35324 -7.35381 6.95261 -0.645405 14.8435 -0.766855 -3.1152 -6.91326 2.27067 0.877476 -9.96407 0.816894 -7.59756 -5.71057 0.313605 0.261318 14.1196 2.50503 1.44128 -7.83339 -9.90099 -0.66873 -11.8465 0.961389 -1.32013 0.467643 -0.0699345 -1.32013 0.467636 -0.0698494 -0.234349 1.01258 0.339292 0.635737 -0.940037 2.70378 1.74976 0.674742 -3.02863 0.208978 9.37558 -4.28124 -9.19303 -0.386283 -1.60558 5.96354e-016 1.59028e-015 -7.95139e-016 7.95139e-016 0 -7.95139e-016 -0.039852 -0.942589 -3.11113 -5.19064 -0.630523 6.82727 1.23888 2.89772 5.49341 9.85249 -1.55087 1.01445 3.97569e-016 -7.95139e-016 -3.18055e-015 3.97569e-016 -7.95139e-016 -4.77083e-015 0.463389 -0.189408 0.159852 
8.39526 95.5181 -7.31233 -0.129674 0.0707808 -0.110987 -0.603944 0.228898 -0.0404393 5.37881 -7.40516 6.9965 -0.670364 14.9474 -0.860775 -3.08549 -6.96569 2.36161 0.873254 -9.97445 0.791683 -7.5945 -5.7386 0.342075 0.272271 14.1626 2.53843 1.43123 -7.86355 -9.94639 -0.668216 -11.8464 0.963512 -1.31819 0.469342 -0.0902564 -1.3182 0.469339 -0.0897188 -0.472918 1.03398 0.497339 0.883446 -0.966409 2.62212 1.60657 0.202043 -2.9344 0.392637 8.93253 -4.68978 -9.26835 -0.450965 -1.41631 -1.98785e-016 0 -0 -5.96354e-016 -1.59028e-015 -7.95139e-016 0.163443 -0.966199 -3.21159 -5.15124 -0.564166 6.7701 1.21676 2.71321 5.47748 9.88541 -1.47096 0.759583 -2.98177e-016 0 3.18055e-015 -8.94531e-016 0 1.59028e-015 0.483823 -0.366969 0.238843 
8.40269 95.5267 -7.30118 -0.138935 0.0700729 -0.106549 -0.605473 0.229476 -0.0410407 5.36281 -7.36707 6.95593 -0.64244 14.8792 -0.761844 -3.10892 -6.94135 2.28704 0.87443 -9.96858 0.798938 -7.57743 -5.6932 0.457877 0.295246 14.0819 2.43823 1.42217 -7.82239 -9.9744 -0.657948 -11.8464 0.964536 -1.31699 0.470962 -0.110765 -1.317 0.470965 -0.110609 -0.622374 1.20801 0.691518 0.914694 -1.14858 2.5095 1.79041 0.553514 -2.87748 0.514635 8.75278 -4.94581 -9.9387 -0.587756 -1.22366 -1.49088e-015 0 -0 -2.38542e-015 1.59028e-015 -7.95139e-016 0.278297 -1.14262 -3.39356 -5.01118 -0.568462 6.69892 0.948332 2.78992 5.59149 9.84732 -1.45603 0.570542 2.98177e-016 1.59028e-015 -0 9.93923e-017 7.95139e-016 1.59028e-015 0.508133 -0.649722 0.379961 
8.4104 95.5271 -7.27585 -0.148451 0.0289507 -0.155692 -0.607011 0.230148 -0.0416421 5.3812 -7.30574 6.90528 -0.665682 14.89 -0.695142 -3.10257 -6.97371 2.31787 0.875142 -9.97202 0.802779 -7.57671 -5.63729 0.480303 0.285961 14.0547 2.44162 1.41769 -7.80792 -9.94965 -0.643592 -11.8478 0.965041 -1.33903 0.472104 -0.102422 -1.33892 0.472112 -0.102791 -0.649872 1.36334 0.82503 1.03327 -1.31335 2.36279 1.79508 0.730901 -2.9279 0.477398 8.66703 -4.7396 -10.2246 -0.644788 -1.04621 3.18055e-015 0 7.95139e-016 1.68967e-015 0 7.95139e-016 0.354488 -1.30014 -3.53413 -4.92552 -0.742283 6.63227 0.760984 2.66572 5.77515 9.99084 -1.49112 0.528669 1.98785e-016 -3.97569e-016 -0 6.95746e-016 -7.95139e-016 -1.59028e-015 0.590372 -0.73062 0.484968 
8.42436 95.5191 -7.2458 -0.160581 -0.012763 -0.253598 -0.608382 0.230865 -0.0420402 5.39877 -7.25119 6.96577 -0.669469 14.9472 -0.754418 -3.08747 -7.04756 2.38557 0.878728 -9.9625 0.824262 -7.5547 -5.61541 0.488691 0.270145 14.082 2.49142 1.42601 -7.82613 -9.90398 -0.637827 -11.8525 0.972579 -1.34546 0.472356 -0.101217 -1.34505 0.472366 -0.101307 -0.660481 1.49684 0.922124 1.01866 -1.45203 2.31042 1.75519 0.198305 -2.98426 0.441605 9.00993 -4.49079 -10.0515 -0.601635 -0.937614 1.39149e-015 1.59028e-015 -0 4.96962e-016 -1.59028e-015 -0 0.479684 -1.43713 -3.56313 -5.00394 -0.923991 6.57669 0.680132 2.46397 6.02493 9.99188 -1.20276 0.297871 -1.98785e-016 3.97569e-016 3.18055e-015 9.93923e-017 0 4.77083e-015 0.63522 -0.705857 0.567378 
8.44885 95.5158 -7.21573 -0.164992 -0.0530145 -0.390384 -0.609445 0.231576 -0.0330019 5.39182 -7.17199 6.97012 -0.680146 14.96 -0.71651 -3.07619 -7.10146 2.44561 0.882448 -9.95884 0.846067 -7.56954 -5.59103 0.509905 0.266317 14.0813 2.51704 1.44171 -7.82548 -9.82278 -0.64149 -11.8539 0.974101 -1.34378 0.471361 -0.0716308 -1.34258 0.471368 -0.0714859 -0.71611 1.56447 0.99074 0.957274 -1.52025 2.46903 1.77893 0.085548 -3.19317 0.480125 9.05351 -4.51441 -10.7709 -0.720737 -0.948447 -8.82781e-032 -3.18055e-015 -1.59028e-015 -8.94531e-016 -4.77083e-015 -0 0.50099 -1.50633 -3.63609 -4.96344 -0.816386 6.64406 0.618902 2.49014 6.08262 9.96558 -1.34975 0.230544 -9.93923e-017 0 -0 9.93923e-017 0 -1.59028e-015 0.713318 -0.735065 0.60213 
8.47048 95.5153 -7.20442 -0.177155 -0.0710571 -0.533217 -0.610089 0.232233 0.00208104 5.38634 -7.12768 6.91906 -0.698141 14.9687 -0.628456 -3.06613 -7.13859 2.50293 0.884679 -9.95523 0.859269 -7.57358 -5.59359 0.477318 0.258559 14.067 2.56483 1.46283 -7.8006 -9.73742 -0.636982 -11.8547 0.987113 -1.33736 0.469679 -0.00213776 -1.33406 0.469683 -0.0021385 -0.818649 1.53492 1.03312 0.976739 -1.49485 2.42454 1.6825 0.1399 -3.22932 0.462489 8.74661 -4.65693 -11.06 -0.798818 -1.00501 5.96354e-016 -1.59028e-015 -0 -1.98785e-016 -1.59028e-015 -0 0.579683 -1.47902 -3.72262 -4.95892 -0.640031 6.65237 0.624301 2.32294 6.04539 10.2002 -1.37036 0.329141 9.93923e-016 3.97569e-016 1.59028e-015 9.93923e-016 3.97569e-016 1.59028e-015 0.818636 -0.761393 0.592808 
8.48348 95.5143 -7.18931 -0.188059 -0.107736 -0.626736 -0.609526 0.233522 0.032541 5.39431 -7.07658 6.85362 -0.725799 14.9885 -0.552971 -3.05118 -7.17661 2.56459 0.88319 -9.95267 0.850874 -7.57349 -5.55589 0.440265 0.23746 14.0412 2.62153 1.47808 -7.78305 -9.69204 -0.639336 -11.8551 0.987032 -1.31933 0.468096 0.0573091 -1.31933 0.468096 0.0573086 -0.949686 1.40655 1.07912 1.06854 -1.37104 2.31416 1.50083 0.0550494 -3.25608 0.441408 8.90437 -4.64093 -11.0564 -0.775059 -1.44437 1.19271e-015 -3.18055e-015 1.59028e-015 2.78299e-015 -4.77083e-015 2.38542e-015 0.609537 -1.35221 -3.81105 -4.76878 -0.925892 6.61612 0.625995 2.25758 6.02787 10.7353 -1.39297 0.457336 2.98177e-016 -3.97569e-016 -0 2.98177e-016 -3.97569e-016 -1.59028e-015 0.877967 -0.768949 0.581007 
8.48943 95.5049 -7.17664 -0.196612 -0.109521 -0.641579 -0.606947 0.237246 0.0337445 5.42835 -7.10294 6.89545 -0.776693 15.0747 -0.70038 -3.00384 -7.23318 2.68855 0.884099 -9.96157 0.85538 -7.55872 -5.57022 0.445707 0.216204 14.0854 2.61297 1.50195 -7.81788 -9.66513 -0.641937 -11.8551 0.986721 -1.32641 0.467393 0.0642904 -1.32705 0.467392 0.0642607 -1.00298 1.31391 1.08735 1.08435 -1.27208 2.26185 1.45804 0.304839 -3.26611 0.348927 8.62501 -4.64809 -11.0566 -0.804301 -1.64441 -1.78906e-015 -1.59028e-015 -1.59028e-015 3.97569e-016 -3.18056e-015 -1.59028e-015 0.608751 -1.26048 -3.79019 -4.55143 -1.06927 6.57922 0.68317 2.28695 5.9244 10.7683 -1.33428 0.571842 -2.98177e-016 -3.97569e-016 -1.59028e-015 -9.93923e-017 -3.97569e-016 1.59028e-015 0.907226 -0.822743 0.565242 
8.49182 95.5039 -7.17997 -0.18564 -0.110876 -0.586527 -0.603232 0.240877 0.034473 5.4136 -7.11905 6.90354 -0.766477 15.0811 -0.691733 -3.00853 -7.21792 2.62805 0.881842 -9.95775 0.842656 -7.57727 -5.56343 0.417307 0.218975 14.0983 2.60244 1.50278 -7.83294 -9.67512 -0.644097 -11.8548 0.982017 -1.33947 0.477012 0.0642161 -1.3396 0.477014 0.064088 -1.09844 1.30422 1.08845 1.15693 -1.26015 2.12499 1.38297 0.152001 -3.1885 0.388854 8.87067 -4.69453 -11.3816 -0.834252 -1.72422 -7.65321e-015 -1.59028e-015 -0 -4.77083e-015 0 -0 0.691674 -1.25316 -3.80907 -4.43582 -1.07511 6.58459 0.686918 2.67299 5.81566 10.889 -1.27523 0.477625 -3.97569e-016 0 -0 9.93923e-017 -7.95139e-016 -0 0.943253 -0.911172 0.539353 
8.49164 95.5109 -7.18379 -0.179392 -0.123527 -0.53723 -0.59909 0.242843 0.0349378 5.38237 -7.096 6.8935 -0.723837 15.0097 -0.687058 -3.02921 -7.17601 2.57045 0.882294 -9.96053 0.845035 -7.58415 -5.53417 0.490306 0.247863 14.0594 2.60272 1.4596 -7.81099 -9.79065 -0.625035 -11.8542 0.966671 -1.33334 0.484864 0.0534499 -1.33334 0.484864 0.0534502 -1.21781 1.25155 1.13437 1.24465 -1.20889 2.13503 1.26304 -0.0161778 -3.27793 0.352304 9.02754 -4.63596 -11.3163 -0.792138 -2.00035 1.59028e-015 3.18055e-015 7.95139e-016 -1.68967e-015 3.18056e-015 7.95139e-016 0.781334 -1.20369 -3.83977 -4.43789 -0.847711 6.627 0.624875 2.88005 5.78001 11.0928 -1.11887 0.444392 -9.93923e-017 0 -0 4.96962e-016 7.95139e-016 1.59028e-015 0.892591 -0.934653 0.552193 
